<svg
        xmlns="http://www.w3.org/2000/svg"
        viewBox="0 0 1200 430"
        className="svg-logo"
        width="630"
        height="430"
>
    <g
            data-element="wrapper"
            transform="translate(-78.74998092651683 -53.75000000000216) scale(1.25000000000001)"
    >
        <g>
            <g
                    data-element="icon"
                    transform="scale(0.13333333333333333) translate(2995.8984375 1312.4999618530273)"
            >
                <path
                        id="color_x5F_2_4_"
                        fill="#2400ff"
                        d="M385.938,140.97c20.761,0,37.591-16.83,37.591-37.591s-16.83-37.591-37.591-37.591    s-37.591,16.83-37.591,37.591S365.177,140.97,385.938,140.97z M570.184,140.97c-10.415,0-18.857,8.443-18.857,18.857    s8.443,18.857,18.857,18.857c10.414,0,18.857-8.443,18.857-18.857S580.598,140.97,570.184,140.97z M473.652,96.02    c-18.247,0-34.596,10.679-42.056,26.962c-8.216,17.932-25.526,30.16-45.658,30.16c-18.227,0-34.157-9.804-42.822-24.423    c-3.339-5.633-9.366-9.121-15.914-9.121h-1.492c0.1-0.893,0.163-1.797,0.163-2.716c0-13.303-10.785-24.088-24.088-24.088    c-13.303,0-24.088,10.785-24.088,24.088c0,0.919,0.063,1.823,0.163,2.716H42.155C18.874,119.598,0,138.471,0,161.753v284.511    c0,23.282,18.874,42.155,42.155,42.155h414.044c23.282,0,42.155-18.874,42.155-42.155V285.547c0-6.693-3.751-12.773-9.658-15.922    c-15.133-8.069-25.436-24.002-25.436-42.351c0-12.197,5.171-27.801,15.564-35.217c9.747-6.955,21.813-10.373,29.906-19.815    c7.137-8.326,11.104-19.073,11.104-30.038C519.835,116.698,499.158,96.021,473.652,96.02z M277.937,459.69h-57.519    c-4.449,0-8.055-3.606-8.055-8.055s3.606-8.055,8.055-8.055h57.519c4.449,0,8.055,3.606,8.055,8.055S282.385,459.69,277.937,459.69z    "
                ></path>
                <path
                        id="color_x5F_1_5_"
                        fill="#ff1d7a"
                        d="M356.118,556.329c0,10.438-8.462,18.9-18.9,18.9H161.136    c-10.438,0-18.899-8.462-18.899-18.9s8.461-18.899,18.899-18.899h20.479v-31.927h135.124v31.927h20.479    C347.656,537.43,356.118,545.891,356.118,556.329z M511.243,196.584c-16.949,0-30.69,13.74-30.69,30.69s13.74,30.69,30.69,30.69    c16.949,0,30.69-13.74,30.69-30.69S528.192,196.584,511.243,196.584z M570.184,43.746c-16.467,0-29.816,13.349-29.816,29.816    c0,16.467,13.349,29.816,29.816,29.816c16.467,0,29.816-13.349,29.816-29.816C600,57.095,586.651,43.746,570.184,43.746z     M473.652,65.787c11.326,0,20.508-9.182,20.508-20.508c0-11.326-9.182-20.508-20.508-20.508c-11.326,0-20.508,9.182-20.508,20.508    C453.144,56.605,462.325,65.787,473.652,65.787z M285.992,451.635c0-4.449-3.607-8.055-8.055-8.055h-57.519    c-4.449,0-8.055,3.606-8.055,8.055s3.606,8.055,8.055,8.055h57.519C282.385,459.69,285.992,456.084,285.992,451.635z"
                ></path>
            </g>
        </g>
    </g>
</svg>