<svg xmlns="http://www.w3.org/2000/svg" xmlns:xlink="http://www.w3.org/1999/xlink" width="105" zoomAndPan="magnify" viewBox="0 0 78.75 149.999998" height="200" preserveAspectRatio="xMidYMid meet" version="1.0">
    <defs>
        <clipPath id="f3bb312ede">
            <path d="M 17.425781 33.464844 L 60.785156 33.464844 L 60.785156 116.453125 L 17.425781 116.453125 Z M 17.425781 33.464844 " clip-rule="nonzero"/>
        </clipPath>
    </defs>
    <g clip-path="url(#f3bb312ede)">
        <path fill="#231f20" d="M 36.777344 35.449219 C 36.511719 35.449219 36.273438 35.640625 36.253906 35.878906 C 36.230469 36.109375 36.363281 36.269531 36.496094 36.34375 L 37 36.628906 L 37 68.671875 C 37 74.257812 35.53125 79.765625 32.753906 84.601562 L 20.515625 105.914062 C 19.492188 107.699219 19.492188 109.832031 20.515625 111.617188 C 21.542969 113.40625 23.378906 114.472656 25.429688 114.472656 L 52.792969 114.472656 C 54.84375 114.472656 56.679688 113.40625 57.707031 111.617188 C 58.730469 109.832031 58.730469 107.699219 57.707031 105.914062 L 45.46875 84.601562 C 42.691406 79.765625 41.222656 74.257812 41.222656 68.671875 L 41.222656 36.628906 L 41.726562 36.34375 C 41.859375 36.269531 41.992188 36.109375 41.972656 35.878906 C 41.949219 35.640625 41.714844 35.449219 41.449219 35.449219 Z M 52.792969 116.453125 L 25.429688 116.453125 C 22.667969 116.453125 20.191406 115.015625 18.8125 112.609375 C 17.429688 110.203125 17.429688 107.328125 18.8125 104.921875 L 31.046875 83.613281 C 33.652344 79.078125 35.027344 73.910156 35.027344 68.671875 L 35.027344 37.695312 C 34.5 37.183594 34.21875 36.445312 34.292969 35.6875 C 34.410156 34.441406 35.5 33.46875 36.777344 33.46875 L 41.449219 33.46875 C 42.722656 33.46875 43.8125 34.441406 43.933594 35.6875 C 44.003906 36.445312 43.722656 37.183594 43.195312 37.695312 L 43.195312 68.671875 C 43.195312 73.910156 44.570312 79.078125 47.175781 83.613281 L 59.414062 104.921875 C 60.792969 107.328125 60.792969 110.203125 59.414062 112.609375 C 58.03125 115.015625 55.554688 116.453125 52.792969 116.453125 " fill-opacity="1" fill-rule="nonzero"/>
    </g>
    <path fill="#231f20" d="M 42.652344 98.375 C 39.972656 98.421875 37.652344 100.429688 35.21875 101.308594 C 32.238281 102.378906 28.972656 102.109375 25.808594 102.152344 C 25.289062 102.160156 24.761719 102.179688 24.234375 102.214844 L 21.710938 106.605469 C 20.933594 107.957031 20.933594 109.574219 21.710938 110.925781 C 22.488281 112.277344 23.878906 113.085938 25.429688 113.085938 L 52.792969 113.085938 C 54.34375 113.085938 55.734375 112.277344 56.511719 110.925781 C 57.289062 109.574219 57.289062 107.957031 56.511719 106.605469 L 52.386719 99.421875 C 51.648438 99.792969 50.898438 100.039062 50.128906 100.089844 C 47.550781 100.25 45.289062 98.324219 42.652344 98.375 " fill-opacity="1" fill-rule="nonzero"/>
    <path fill="#231f20" d="M 33.605469 99.785156 C 33.605469 99.003906 32.976562 98.371094 32.203125 98.371094 C 31.425781 98.371094 30.796875 99.003906 30.796875 99.785156 C 30.796875 100.5625 31.425781 101.195312 32.203125 101.195312 C 32.976562 101.195312 33.605469 100.5625 33.605469 99.785156 " fill-opacity="1" fill-rule="nonzero"/>
    <path fill="#231f20" d="M 40.273438 95.117188 C 40.273438 95.761719 39.753906 96.285156 39.113281 96.285156 C 38.46875 96.285156 37.949219 95.761719 37.949219 95.117188 C 37.949219 94.46875 38.46875 93.945312 39.113281 93.945312 C 39.753906 93.945312 40.273438 94.46875 40.273438 95.117188 " fill-opacity="1" fill-rule="nonzero"/>
    <path fill="#231f20" d="M 44.414062 93.867188 C 44.414062 94.414062 43.972656 94.855469 43.429688 94.855469 C 42.886719 94.855469 42.445312 94.414062 42.445312 93.867188 C 42.445312 93.320312 42.886719 92.875 43.429688 92.875 C 43.972656 92.875 44.414062 93.320312 44.414062 93.867188 " fill-opacity="1" fill-rule="nonzero"/>
    <path fill="#231f20" d="M 48.15625 96.285156 C 48.15625 96.941406 47.628906 97.476562 46.976562 97.476562 C 46.324219 97.476562 45.792969 96.941406 45.792969 96.285156 C 45.792969 95.628906 46.324219 95.097656 46.976562 95.097656 C 47.628906 95.097656 48.15625 95.628906 48.15625 96.285156 " fill-opacity="1" fill-rule="nonzero"/>
    <path fill="#231f20" d="M 40.273438 88.695312 C 40.273438 89.339844 39.753906 89.863281 39.113281 89.863281 C 38.46875 89.863281 37.949219 89.339844 37.949219 88.695312 C 37.949219 88.050781 38.46875 87.523438 39.113281 87.523438 C 39.753906 87.523438 40.273438 88.050781 40.273438 88.695312 " fill-opacity="1" fill-rule="nonzero"/>
    <path fill="#231f20" d="M 41.5625 38.546875 L 36.660156 38.546875 L 36.660156 36.566406 L 41.5625 36.566406 L 41.5625 38.546875 " fill-opacity="1" fill-rule="nonzero"/>
</svg>