<svg xmlns="http://www.w3.org/2000/svg" xmlns:xlink="http://www.w3.org/1999/xlink" width="50" zoomAndPan="magnify" viewBox="0 0 37.5 32.999998" height="44" preserveAspectRatio="xMidYMid meet" version="1.0">
    <defs>
        <clipPath id="70bcea9721">
            <path d="M 0 0.21875 L 37 0.21875 L 37 32.78125 L 0 32.78125 Z M 0 0.21875 " clip-rule="nonzero"/>
        </clipPath>
    </defs>
    <g clip-path="url(#70bcea9721)">
        <path fill="#000000" d="M 37 23.816406 L 37 3.046875 C 37 2.671875 36.925781 2.308594 36.785156 1.964844 C 36.640625 1.617188 36.433594 1.3125 36.167969 1.046875 C 35.902344 0.78125 35.59375 0.574219 35.246094 0.433594 C 34.898438 0.289062 34.535156 0.21875 34.160156 0.21875 L 2.847656 0.21875 C 2.472656 0.21875 2.109375 0.289062 1.761719 0.433594 C 1.414062 0.574219 1.105469 0.78125 0.839844 1.046875 C 0.574219 1.3125 0.367188 1.617188 0.222656 1.964844 C 0.078125 2.308594 0.0078125 2.671875 0.0078125 3.046875 L 0.0078125 23.816406 C 0.0078125 24.191406 0.078125 24.550781 0.222656 24.898438 C 0.367188 25.246094 0.574219 25.550781 0.839844 25.816406 C 1.105469 26.082031 1.414062 26.285156 1.761719 26.429688 C 2.109375 26.570312 2.472656 26.644531 2.847656 26.644531 L 14.628906 26.644531 L 14.628906 28.28125 C 14.628906 28.582031 14.570312 28.875 14.453125 29.152344 C 14.335938 29.433594 14.171875 29.679688 13.957031 29.894531 C 13.742188 30.109375 13.492188 30.273438 13.210938 30.390625 C 12.929688 30.503906 12.636719 30.5625 12.335938 30.5625 L 9.769531 30.5625 C 9.472656 30.5625 9.1875 30.621094 8.917969 30.730469 C 8.644531 30.84375 8.402344 31.003906 8.191406 31.214844 C 7.984375 31.421875 7.824219 31.660156 7.710938 31.933594 C 7.597656 32.207031 7.539062 32.488281 7.539062 32.78125 L 29.464844 32.78125 C 29.464844 32.488281 29.410156 32.207031 29.296875 31.933594 C 29.183594 31.660156 29.023438 31.421875 28.8125 31.214844 C 28.605469 31.003906 28.363281 30.84375 28.089844 30.730469 C 27.816406 30.621094 27.535156 30.5625 27.238281 30.5625 L 24.671875 30.5625 C 24.367188 30.5625 24.074219 30.503906 23.792969 30.390625 C 23.515625 30.273438 23.265625 30.109375 23.050781 29.894531 C 22.835938 29.679688 22.671875 29.433594 22.554688 29.152344 C 22.4375 28.875 22.378906 28.582031 22.378906 28.28125 L 22.378906 26.644531 L 34.160156 26.644531 C 34.535156 26.644531 34.898438 26.570312 35.246094 26.429688 C 35.59375 26.285156 35.902344 26.082031 36.167969 25.816406 C 36.433594 25.550781 36.640625 25.246094 36.785156 24.898438 C 36.925781 24.550781 37 24.191406 37 23.816406 Z M 1.742188 22.773438 L 1.742188 3.167969 C 1.742188 3.011719 1.769531 2.859375 1.832031 2.714844 C 1.890625 2.566406 1.980469 2.441406 2.089844 2.328125 C 2.203125 2.214844 2.332031 2.128906 2.476562 2.070312 C 2.625 2.011719 2.777344 1.980469 2.933594 1.980469 L 34.070312 1.980469 C 34.230469 1.980469 34.382812 2.011719 34.527344 2.070312 C 34.675781 2.128906 34.804688 2.214844 34.914062 2.328125 C 35.027344 2.441406 35.113281 2.566406 35.175781 2.714844 C 35.234375 2.859375 35.265625 3.011719 35.265625 3.167969 L 35.265625 22.773438 C 35.265625 22.929688 35.234375 23.082031 35.175781 23.226562 C 35.113281 23.371094 35.027344 23.5 34.914062 23.613281 C 34.804688 23.722656 34.675781 23.808594 34.527344 23.871094 C 34.382812 23.929688 34.230469 23.960938 34.070312 23.960938 L 2.933594 23.960938 C 2.777344 23.960938 2.625 23.929688 2.476562 23.871094 C 2.332031 23.808594 2.203125 23.722656 2.089844 23.613281 C 1.980469 23.5 1.890625 23.371094 1.832031 23.226562 C 1.769531 23.082031 1.742188 22.929688 1.742188 22.773438 Z M 1.742188 22.773438 " fill-opacity="1" fill-rule="nonzero"/>
    </g>
</svg>