<svg xmlns="http://www.w3.org/2000/svg" xmlns:xlink="http://www.w3.org/1999/xlink" width="40" zoomAndPan="magnify" viewBox="0 0 30 30.000001" height="40" preserveAspectRatio="xMidYMid meet" version="1.0"><path fill="#2400ff" d="M 20.007812 8.410156 C 20.746094 8.410156 21.347656 7.808594 21.347656 7.066406 C 21.347656 6.324219 20.746094 5.722656 20.007812 5.722656 C 19.265625 5.722656 18.664062 6.324219 18.664062 7.066406 C 18.664062 7.808594 19.265625 8.410156 20.007812 8.410156 Z M 26.582031 8.410156 C 26.210938 8.410156 25.910156 8.710938 25.910156 9.082031 C 25.910156 9.457031 26.210938 9.757812 26.582031 9.757812 C 26.953125 9.757812 27.253906 9.457031 27.253906 9.082031 C 27.253906 8.710938 26.953125 8.410156 26.582031 8.410156 Z M 23.136719 6.804688 C 22.484375 6.804688 21.902344 7.183594 21.636719 7.765625 C 21.34375 8.40625 20.726562 8.84375 20.007812 8.84375 C 19.355469 8.84375 18.789062 8.492188 18.480469 7.972656 C 18.359375 7.769531 18.144531 7.644531 17.910156 7.644531 L 17.859375 7.644531 C 17.859375 7.613281 17.863281 7.582031 17.863281 7.550781 C 17.863281 7.074219 17.476562 6.6875 17.003906 6.6875 C 16.527344 6.6875 16.144531 7.074219 16.144531 7.550781 C 16.144531 7.582031 16.144531 7.613281 16.148438 7.644531 L 7.738281 7.644531 C 6.90625 7.644531 6.234375 8.320312 6.234375 9.152344 L 6.234375 19.316406 C 6.234375 20.148438 6.90625 20.824219 7.738281 20.824219 L 22.515625 20.824219 C 23.34375 20.824219 24.019531 20.148438 24.019531 19.316406 L 24.019531 13.574219 C 24.019531 13.335938 23.882812 13.117188 23.671875 13.007812 C 23.132812 12.71875 22.765625 12.148438 22.765625 11.492188 C 22.765625 11.058594 22.949219 10.5 23.320312 10.234375 C 23.667969 9.984375 24.101562 9.863281 24.386719 9.527344 C 24.644531 9.230469 24.785156 8.84375 24.785156 8.453125 C 24.785156 7.542969 24.046875 6.804688 23.136719 6.804688 Z M 16.152344 19.796875 L 14.101562 19.796875 C 13.941406 19.796875 13.8125 19.667969 13.8125 19.507812 C 13.8125 19.351562 13.941406 19.222656 14.101562 19.222656 L 16.152344 19.222656 C 16.3125 19.222656 16.441406 19.351562 16.441406 19.507812 C 16.441406 19.667969 16.3125 19.796875 16.152344 19.796875 Z M 16.152344 19.796875 " fill-opacity="1" fill-rule="nonzero"/><path fill="#ff1d7a" d="M 18.941406 23.25 C 18.941406 23.621094 18.640625 23.925781 18.269531 23.925781 L 11.984375 23.925781 C 11.613281 23.925781 11.308594 23.621094 11.308594 23.25 C 11.308594 22.875 11.613281 22.574219 11.984375 22.574219 L 12.714844 22.574219 L 12.714844 21.433594 L 17.539062 21.433594 L 17.539062 22.574219 L 18.269531 22.574219 C 18.640625 22.574219 18.941406 22.875 18.941406 23.25 Z M 24.476562 10.398438 C 23.875 10.398438 23.382812 10.886719 23.382812 11.492188 C 23.382812 12.097656 23.875 12.589844 24.476562 12.589844 C 25.082031 12.589844 25.574219 12.097656 25.574219 11.492188 C 25.574219 10.886719 25.082031 10.398438 24.476562 10.398438 Z M 26.582031 4.9375 C 25.992188 4.9375 25.515625 5.414062 25.515625 6 C 25.515625 6.589844 25.992188 7.066406 26.582031 7.066406 C 27.167969 7.066406 27.644531 6.589844 27.644531 6 C 27.644531 5.414062 27.167969 4.9375 26.582031 4.9375 Z M 23.136719 5.722656 C 23.539062 5.722656 23.867188 5.394531 23.867188 4.992188 C 23.867188 4.585938 23.539062 4.257812 23.136719 4.257812 C 22.734375 4.257812 22.40625 4.585938 22.40625 4.992188 C 22.40625 5.394531 22.734375 5.722656 23.136719 5.722656 Z M 16.441406 19.507812 C 16.441406 19.351562 16.3125 19.222656 16.152344 19.222656 L 14.101562 19.222656 C 13.941406 19.222656 13.8125 19.351562 13.8125 19.507812 C 13.8125 19.667969 13.941406 19.796875 14.101562 19.796875 L 16.152344 19.796875 C 16.3125 19.796875 16.441406 19.667969 16.441406 19.507812 Z M 16.441406 19.507812 " fill-opacity="1" fill-rule="nonzero"/></svg>