<svg xmlns="http://www.w3.org/2000/svg" width="144" zoomAndPan="magnify" viewBox="0 0 108 149.999998" height="200" preserveAspectRatio="xMidYMid meet" version="1.0">
    <defs>
        <clipPath id="48cefaed53">
            <path d="M 12.773438 41.082031 L 95.25 41.082031 L 95.25 131.832031 L 12.773438 131.832031 Z M 12.773438 41.082031 " clip-rule="nonzero"/>
        </clipPath>
        <clipPath id="a9f8b41bf7">
            <path d="M 34.152344 41.082031 L 73.847656 41.082031 L 73.847656 49.328125 L 34.152344 49.328125 Z M 34.152344 41.082031 " clip-rule="nonzero"/>
        </clipPath>
        <clipPath id="9ce17d26c0">
            <path d="M 38.273438 41.082031 L 69.726562 41.082031 C 70.820312 41.082031 71.867188 41.515625 72.640625 42.289062 C 73.414062 43.0625 73.847656 44.109375 73.847656 45.203125 C 73.847656 46.296875 73.414062 47.347656 72.640625 48.121094 C 71.867188 48.894531 70.820312 49.328125 69.726562 49.328125 L 38.273438 49.328125 C 37.179688 49.328125 36.132812 48.894531 35.359375 48.121094 C 34.585938 47.347656 34.152344 46.296875 34.152344 45.203125 C 34.152344 44.109375 34.585938 43.0625 35.359375 42.289062 C 36.132812 41.515625 37.179688 41.082031 38.273438 41.082031 Z M 38.273438 41.082031 " clip-rule="nonzero"/>
        </clipPath>
        <clipPath id="9836f74a8c">
            <path d="M 46.949219 28.355469 L 55.382812 28.355469 L 55.382812 36.789062 L 46.949219 36.789062 Z M 46.949219 28.355469 " clip-rule="nonzero"/>
        </clipPath>
        <clipPath id="6167d577cf">
            <path d="M 51.164062 28.355469 C 48.835938 28.355469 46.949219 30.242188 46.949219 32.570312 C 46.949219 34.898438 48.835938 36.789062 51.164062 36.789062 C 53.496094 36.789062 55.382812 34.898438 55.382812 32.570312 C 55.382812 30.242188 53.496094 28.355469 51.164062 28.355469 Z M 51.164062 28.355469 " clip-rule="nonzero"/>
        </clipPath>
        <clipPath id="fbc0e0959a">
            <path d="M 58.097656 26.570312 L 64.789062 26.570312 L 64.789062 33.261719 L 58.097656 33.261719 Z M 58.097656 26.570312 " clip-rule="nonzero"/>
        </clipPath>
        <clipPath id="2dc13140ed">
            <path d="M 61.445312 26.570312 C 59.597656 26.570312 58.097656 28.070312 58.097656 29.917969 C 58.097656 31.765625 59.597656 33.261719 61.445312 33.261719 C 63.292969 33.261719 64.789062 31.765625 64.789062 29.917969 C 64.789062 28.070312 63.292969 26.570312 61.445312 26.570312 Z M 61.445312 26.570312 " clip-rule="nonzero"/>
        </clipPath>
        <clipPath id="e3e61d691e">
            <path d="M 50.472656 17.855469 L 56.261719 17.855469 L 56.261719 23.644531 L 50.472656 23.644531 Z M 50.472656 17.855469 " clip-rule="nonzero"/>
        </clipPath>
        <clipPath id="93ffa17542">
            <path d="M 53.367188 17.855469 C 51.769531 17.855469 50.472656 19.152344 50.472656 20.75 C 50.472656 22.351562 51.769531 23.644531 53.367188 23.644531 C 54.96875 23.644531 56.261719 22.351562 56.261719 20.75 C 56.261719 19.152344 54.96875 17.855469 53.367188 17.855469 Z M 53.367188 17.855469 " clip-rule="nonzero"/>
        </clipPath>
    </defs>
    <g clip-path="url(#48cefaed53)">
        <path fill="#2400ff" d="M 72.007812 61.246094 C 72.601562 61.605469 73.183594 61.984375 73.75 62.378906 L 77.558594 59.550781 C 78.605469 58.777344 80.046875 58.699219 81.042969 59.699219 L 83.136719 61.789062 L 85.226562 63.875 C 86.226562 64.875 86.144531 66.320312 85.363281 67.367188 L 82.535156 71.171875 C 85.304688 75.15625 87.25 79.75 88.152344 84.714844 L 92.839844 85.40625 C 94.128906 85.59375 95.203125 86.5625 95.203125 87.96875 L 95.203125 93.886719 C 95.203125 95.292969 94.128906 96.253906 92.839844 96.449219 L 88.152344 97.140625 C 87.25 102.097656 85.304688 106.695312 82.535156 110.683594 L 85.363281 114.492188 C 86.144531 115.539062 86.226562 116.980469 85.222656 117.976562 L 83.132812 120.070312 L 81.039062 122.160156 C 80.046875 123.160156 78.605469 123.078125 77.558594 122.300781 L 73.75 119.472656 C 69.761719 122.238281 65.167969 124.1875 60.207031 125.085938 L 59.511719 129.777344 C 59.320312 131.0625 58.359375 132.136719 56.949219 132.136719 L 51.035156 132.136719 C 49.625 132.136719 48.660156 131.0625 48.472656 129.777344 L 47.777344 125.085938 C 42.816406 124.1875 38.226562 122.238281 34.234375 119.472656 L 30.425781 122.300781 C 29.378906 123.082031 27.9375 123.152344 26.945312 122.160156 L 24.851562 120.070312 L 22.761719 117.976562 C 21.761719 116.980469 21.839844 115.539062 22.613281 114.492188 L 25.441406 110.683594 C 22.679688 106.695312 20.726562 102.097656 19.832031 97.140625 L 15.140625 96.449219 C 13.863281 96.253906 12.789062 95.292969 12.789062 93.882812 L 12.789062 87.96875 C 12.789062 86.558594 13.863281 85.59375 15.148438 85.40625 L 19.839844 84.710938 C 20.734375 79.75 22.6875 75.152344 25.449219 71.171875 L 22.621094 67.359375 C 21.847656 66.3125 21.765625 64.871094 22.769531 63.871094 L 24.859375 61.78125 L 26.953125 59.695312 C 27.945312 58.695312 29.386719 58.773438 30.433594 59.546875 L 34.242188 62.375 C 34.808594 61.980469 35.390625 61.609375 35.984375 61.246094 L 35.984375 48.789062 L 28.199219 48.789062 C 26.074219 48.789062 24.34375 47.058594 24.34375 44.933594 L 24.34375 41.082031 L 29.089844 41.082031 L 29.089844 41.1875 L 43.691406 41.1875 L 43.691406 68.25 C 35.082031 72.171875 29.097656 80.851562 29.097656 90.925781 C 29.097656 104.679688 40.242188 115.828125 53.992188 115.828125 C 67.746094 115.828125 78.894531 104.679688 78.894531 90.925781 C 78.894531 80.851562 72.902344 72.171875 64.296875 68.25 L 64.296875 41.1875 L 83.648438 41.1875 L 83.648438 44.710938 C 83.648438 46.832031 81.914062 48.566406 79.792969 48.566406 L 72.007812 48.566406 Z M 72.007812 61.246094 " fill-opacity="1" fill-rule="evenodd"/>
    </g>
    <path fill="#ff1d7a" d="M 76.246094 93.691406 C 74.9375 104.820312 65.472656 113.457031 53.992188 113.457031 C 41.617188 113.457031 31.585938 103.421875 31.585938 91.050781 C 31.585938 90.269531 31.632812 89.496094 31.703125 88.742188 C 33.671875 87.535156 36.765625 86.367188 41.042969 86.847656 C 40.910156 87.28125 40.835938 87.742188 40.835938 88.222656 C 40.835938 90.726562 42.855469 92.75 45.359375 92.75 C 47.367188 92.75 49.0625 91.445312 49.664062 89.644531 C 50.609375 90.128906 51.589844 90.691406 52.605469 91.324219 C 62.730469 97.703125 70.175781 97.460938 76.246094 93.691406 Z M 59.273438 107.359375 C 60.074219 107.359375 60.722656 108.007812 60.722656 108.800781 C 60.722656 109.59375 60.074219 110.242188 59.273438 110.242188 C 58.480469 110.242188 57.832031 109.59375 57.832031 108.800781 C 57.832031 108.007812 58.480469 107.359375 59.273438 107.359375 Z M 41.613281 99.59375 C 42.609375 99.59375 43.425781 100.410156 43.425781 101.417969 C 43.425781 102.417969 42.609375 103.230469 41.613281 103.230469 C 40.613281 103.230469 39.796875 102.417969 39.796875 101.417969 C 39.796875 100.410156 40.609375 99.59375 41.613281 99.59375 Z M 48.941406 95.753906 C 50.269531 95.753906 51.347656 96.828125 51.347656 98.160156 C 51.347656 99.488281 50.269531 100.566406 48.941406 100.566406 C 47.605469 100.566406 46.527344 99.488281 46.527344 98.160156 C 46.527344 96.828125 47.609375 95.753906 48.941406 95.753906 Z M 48.941406 95.753906 " fill-opacity="1" fill-rule="evenodd"/>
    <path fill="#ff1d7a" d="M 52.351562 80.921875 C 53.546875 80.921875 54.503906 81.882812 54.503906 83.078125 C 54.503906 84.265625 53.546875 85.234375 52.351562 85.234375 C 51.164062 85.234375 50.195312 84.265625 50.195312 83.078125 C 50.195312 81.886719 51.164062 80.921875 52.351562 80.921875 Z M 52.351562 80.921875 " fill-opacity="0.9" fill-rule="evenodd"/>
    <path fill="#ff1d7a" d="M 46.527344 74.234375 C 47.714844 74.234375 48.679688 75.199219 48.679688 76.386719 C 48.679688 77.582031 47.714844 78.550781 46.527344 78.550781 C 45.332031 78.550781 44.363281 77.582031 44.363281 76.386719 C 44.367188 75.199219 45.332031 74.234375 46.527344 74.234375 Z M 46.527344 74.234375 " fill-opacity="0.9" fill-rule="evenodd"/>
    <path fill="#ff1d7a" d="M 52.660156 69.835938 C 53.699219 69.835938 54.546875 70.683594 54.546875 71.726562 C 54.546875 72.765625 53.699219 73.605469 52.660156 73.605469 C 51.617188 73.605469 50.769531 72.765625 50.769531 71.726562 C 50.769531 70.683594 51.617188 69.835938 52.660156 69.835938 Z M 52.660156 69.835938 " fill-opacity="0.88" fill-rule="evenodd"/>
    <path fill="#ff1d7a" d="M 45.359375 85.585938 C 46.820312 85.585938 48 86.769531 48 88.222656 C 48 89.683594 46.820312 90.863281 45.359375 90.863281 C 43.902344 90.863281 42.722656 89.683594 42.722656 88.222656 C 42.726562 86.769531 43.90625 85.585938 45.359375 85.585938 Z M 45.359375 85.585938 " fill-opacity="1" fill-rule="evenodd"/>
    <g clip-path="url(#a9f8b41bf7)">
        <g clip-path="url(#9ce17d26c0)">
            <path fill="#2400ff" d="M 34.152344 41.082031 L 73.847656 41.082031 L 73.847656 49.328125 L 34.152344 49.328125 Z M 34.152344 41.082031 " fill-opacity="1" fill-rule="nonzero"/>
        </g>
    </g>
    <g clip-path="url(#9836f74a8c)">
        <g clip-path="url(#6167d577cf)">
            <path fill="#ff1d7a" d="M 46.949219 28.355469 L 55.382812 28.355469 L 55.382812 36.789062 L 46.949219 36.789062 Z M 46.949219 28.355469 " fill-opacity="0.85" fill-rule="nonzero"/>
        </g>
    </g>
    <g clip-path="url(#fbc0e0959a)">
        <g clip-path="url(#2dc13140ed)">
            <path fill="#ff1d7a" d="M 58.097656 26.570312 L 64.789062 26.570312 L 64.789062 33.261719 L 58.097656 33.261719 Z M 58.097656 26.570312 " fill-opacity="0.75" fill-rule="nonzero"/>
        </g>
    </g>
    <g clip-path="url(#e3e61d691e)">
        <g clip-path="url(#93ffa17542)">
            <path fill="#ff1d7a" d="M 50.472656 17.855469 L 56.261719 17.855469 L 56.261719 23.644531 L 50.472656 23.644531 Z M 50.472656 17.855469 " fill-opacity="0.6" fill-rule="nonzero"/>
        </g>
    </g>
</svg>